<?xml version="1.0" encoding="utf-8"?>
<!-- created with bpmn-js / http://bpmn.io -->
<!DOCTYPE svg PUBLIC "-//W3C//DTD SVG 1.1//EN" "http://www.w3.org/Graphics/SVG/1.1/DTD/svg11.dtd">
<svg xmlns="http://www.w3.org/2000/svg" xmlns:xlink="http://www.w3.org/1999/xlink" width="1067" height="395" viewBox="150 102 1067 395" version="1.1"><defs><marker id="sequenceflow-end-white-black" viewBox="0 0 20 20" refX="11" refY="10" markerWidth="10" markerHeight="10" orient="auto"><path d="M 1 5 L 11 10 L 1 15 Z" style="fill: black; stroke-width: 1px; stroke-linecap: round; stroke-dasharray: 10000, 1; stroke: black;"></path></marker></defs><g class="djs-group"><g class="djs-element djs-shape" data-element-id="Participant_0lf1zfi" transform="translate(156, 108)" style="display: block;"><g class="djs-visual"><rect x="0" y="0" width="1055" height="383" rx="0" ry="0" style="stroke: black; stroke-width: 2px; fill: white; fill-opacity: 0.95;"/><polyline points="30,0 30,383 " style="fill: none; stroke: black; stroke-width: 2px;"/><text style="font-family: Arial,sans-serif; font-size: 12px; fill: black;" class="djs-label" transform="matrix(-1.83697e-16, -1, 1, -1.83697e-16, 0, 383)"><tspan x="191.5" y="18.5"/></text></g><rect x="0" y="0" width="1055" height="383" style="fill: none; stroke-opacity: 0; stroke: white; stroke-width: 15px;" class="djs-hit"/><rect x="-6" y="-6" width="1067" height="395" style="fill: none;" class="djs-outline"/></g><g class="djs-children"><g class="djs-group"><g class="djs-element djs-shape" data-element-id="Lane_01zln1v" transform="translate(186, 108)" style="display: block;"><g class="djs-visual"><rect x="0" y="0" width="1025" height="182" rx="0" ry="0" style="stroke: black; stroke-width: 2px; fill: white;"/><text style="font-family: Arial,sans-serif; font-size: 12px; fill: black;" class="djs-label" transform="matrix(-1.83697e-16, -1, 1, -1.83697e-16, 0, 182)"><tspan x="67" y="18.5">Reporter</tspan></text></g><rect x="0" y="0" width="1025" height="182" style="fill: none; stroke-opacity: 0; stroke: white; stroke-width: 15px;" class="djs-hit"/><rect x="-6" y="-6" width="1037" height="194" style="fill: none;" class="djs-outline"/></g></g><g class="djs-group"><g class="djs-element djs-shape" data-element-id="Lane_01byt87" transform="translate(186, 290)" style="display: block;"><g class="djs-visual"><rect x="0" y="0" width="1025" height="201" rx="0" ry="0" style="stroke: black; stroke-width: 2px; fill: white;"/><text style="font-family: Arial,sans-serif; font-size: 12px; fill: black;" class="djs-label" transform="matrix(-1.83697e-16, -1, 1, -1.83697e-16, 0, 201)"><tspan x="66.5" y="11.5">Editor Chefe</tspan><tspan x="100.5" y="25.5"/></text></g><rect x="0" y="0" width="1025" height="201" style="fill: none; stroke-opacity: 0; stroke: white; stroke-width: 15px;" class="djs-hit"/><rect x="-6" y="-6" width="1037" height="213" style="fill: none;" class="djs-outline"/></g></g><g class="djs-group"><g class="djs-element djs-shape" data-element-id="Task_094k3ru" transform="translate(337, 182)" style="display: block;"><g class="djs-visual"><rect x="0" y="0" width="100" height="80" rx="10" ry="10" style="stroke: black; stroke-width: 2px; fill: white;"/><text style="font-family: Arial,sans-serif; font-size: 12px; fill: black;" class="djs-label"><tspan x="6.5" y="36.5">pré apura pauta</tspan><tspan x="50" y="50.5"/></text></g><rect x="0" y="0" width="100" height="80" style="fill: none; stroke-opacity: 0; stroke: white; stroke-width: 15px;" class="djs-hit"/><rect x="-6" y="-6" width="112" height="92" style="fill: none;" class="djs-outline"/></g></g><g class="djs-group"><g class="djs-element djs-shape" data-element-id="Task_1a41b4z" transform="translate(499, 182)" style="display: block;"><g class="djs-visual"><rect x="0" y="0" width="100" height="80" rx="10" ry="10" style="stroke: black; stroke-width: 2px; fill: white;"/><text style="font-family: Arial,sans-serif; font-size: 12px; fill: black;" class="djs-label"><tspan x="22.5" y="29.5">apresenta </tspan><tspan x="34" y="43.5">Pauta</tspan><tspan x="50" y="57.5"/></text></g><rect x="0" y="0" width="100" height="80" style="fill: none; stroke-opacity: 0; stroke: white; stroke-width: 15px;" class="djs-hit"/><rect x="-6" y="-6" width="112" height="92" style="fill: none;" class="djs-outline"/></g></g><g class="djs-group"><g class="djs-element djs-shape" data-element-id="StartEvent_1" transform="translate(228, 204)" style="display: block;"><g class="djs-visual"><circle cx="18" cy="18" r="18" style="stroke: black; stroke-width: 2px; fill: white;"/></g><rect x="0" y="0" width="36" height="36" style="fill: none; stroke-opacity: 0; stroke: white; stroke-width: 15px;" class="djs-hit"/><rect x="-6" y="-6" width="48" height="48" style="fill: none;" class="djs-outline"/></g></g><g class="djs-group"><g class="djs-element djs-shape" data-element-id="Task_17lafxf" transform="translate(653, 182)" style="display: block;"><g class="djs-visual"><rect x="0" y="0" width="100" height="80" rx="10" ry="10" style="stroke: black; stroke-width: 2px; fill: white;"/><text style="font-family: Arial,sans-serif; font-size: 12px; fill: black;" class="djs-label"><tspan x="17" y="36.5">apura pauta</tspan><tspan x="50" y="50.5"/></text></g><rect x="0" y="0" width="100" height="80" style="fill: none; stroke-opacity: 0; stroke: white; stroke-width: 15px;" class="djs-hit"/><rect x="-6" y="-6" width="112" height="92" style="fill: none;" class="djs-outline"/></g></g><g class="djs-group"><g class="djs-element djs-shape" data-element-id="ExclusiveGateway_00mb5hu" transform="translate(524, 337)" style="display: block;"><g class="djs-visual"><polygon points="25,0 50,25 25,50 0,25" style="stroke: black; stroke-width: 2px; fill: white;"/><path d="m 16,15 7.42857142857143,9.714285714285715 -7.42857142857143,9.714285714285715 3.428571428571429,0 5.714285714285715,-7.464228571428572 5.714285714285715,7.464228571428572 3.428571428571429,0 -7.42857142857143,-9.714285714285715 7.42857142857143,-9.714285714285715 -3.428571428571429,0 -5.714285714285715,7.464228571428572 -5.714285714285715,-7.464228571428572 -3.428571428571429,0 z" style="fill: black; stroke-width: 1px; stroke: black;"/></g><rect x="0" y="0" width="50" height="50" style="fill: none; stroke-opacity: 0; stroke: white; stroke-width: 15px;" class="djs-hit"/><rect x="-6" y="-6" width="62" height="62" style="fill: none;" class="djs-outline"/></g><g class="djs-children"><g class="djs-group"><g class="djs-element djs-shape" data-element-id="ExclusiveGateway_00mb5hu_label" transform="translate(518, 376)" style="display: block;"><g class="djs-visual"><text style="font-family: Arial,sans-serif; font-size: 11px;" class="djs-label"><tspan x="0" y="13">aprova pauta</tspan><tspan x="32" y="26"/></text></g><rect x="0" y="0" width="64" height="26" style="fill: none; stroke-opacity: 0; stroke: white; stroke-width: 15px;" class="djs-hit"/><rect x="-6" y="-6" width="76" height="38" style="fill: none;" class="djs-outline"/></g></g></g></g><g class="djs-group"><g class="djs-element djs-shape" data-element-id="Task_1i1zxls" transform="translate(818, 182)" style="display: block;"><g class="djs-visual"><rect x="0" y="0" width="100" height="80" rx="10" ry="10" style="stroke: black; stroke-width: 2px; fill: white;"/><text style="font-family: Arial,sans-serif; font-size: 12px; fill: black;" class="djs-label"><tspan x="10.5" y="36.5">redige matéria</tspan><tspan x="50" y="50.5"/></text></g><rect x="0" y="0" width="100" height="80" style="fill: none; stroke-opacity: 0; stroke: white; stroke-width: 15px;" class="djs-hit"/><rect x="-6" y="-6" width="112" height="92" style="fill: none;" class="djs-outline"/></g></g><g class="djs-group"><g class="djs-element djs-shape" data-element-id="Task_13ussr4" transform="translate(818, 347)" style="display: block;"><g class="djs-visual"><rect x="0" y="0" width="100" height="80" rx="10" ry="10" style="stroke: black; stroke-width: 2px; fill: white;"/><text style="font-family: Arial,sans-serif; font-size: 12px; fill: black;" class="djs-label"><tspan x="11.5" y="36.5">revisa matéria</tspan><tspan x="50" y="50.5"/></text></g><rect x="0" y="0" width="100" height="80" style="fill: none; stroke-opacity: 0; stroke: white; stroke-width: 15px;" class="djs-hit"/><rect x="-6" y="-6" width="112" height="92" style="fill: none;" class="djs-outline"/></g></g><g class="djs-group"><g class="djs-element djs-shape" data-element-id="ExclusiveGateway_06zaiek" transform="translate(989, 362)" style="display: block;"><g class="djs-visual"><polygon points="25,0 50,25 25,50 0,25" style="stroke: black; stroke-width: 2px; fill: white;"/><path d="m 16,15 7.42857142857143,9.714285714285715 -7.42857142857143,9.714285714285715 3.428571428571429,0 5.714285714285715,-7.464228571428572 5.714285714285715,7.464228571428572 3.428571428571429,0 -7.42857142857143,-9.714285714285715 7.42857142857143,-9.714285714285715 -3.428571428571429,0 -5.714285714285715,7.464228571428572 -5.714285714285715,-7.464228571428572 -3.428571428571429,0 z" style="fill: black; stroke-width: 1px; stroke: black;"/></g><rect x="0" y="0" width="50" height="50" style="fill: none; stroke-opacity: 0; stroke: white; stroke-width: 15px;" class="djs-hit"/><rect x="-6" y="-6" width="62" height="62" style="fill: none;" class="djs-outline"/></g></g><g class="djs-group"><g class="djs-element djs-shape" data-element-id="SequenceFlow_04k1tnd_label" transform="translate(468, 200)" style="display: none;"><g class="djs-visual"><text style="font-family: Arial,sans-serif; font-size: 11px;" class="djs-label"><tspan x="0" y="13"/></text></g><rect x="0" y="0" width="0" height="13" style="fill: none; stroke-opacity: 0; stroke: white; stroke-width: 15px;" class="djs-hit"/><rect x="-6" y="-6" width="12" height="25" style="fill: none;" class="djs-outline"/></g></g><g class="djs-group"><g class="djs-element djs-shape" data-element-id="StartEvent_1_label" transform="translate(210, 240)" style="display: block;"><g class="djs-visual"><text style="font-family: Arial,sans-serif; font-size: 11px;" class="djs-label"><tspan x="0" y="13">trás uma pauta</tspan><tspan x="36.5" y="26"/></text></g><rect x="0" y="0" width="73" height="26" style="fill: none; stroke-opacity: 0; stroke: white; stroke-width: 15px;" class="djs-hit"/><rect x="-6" y="-6" width="85" height="38" style="fill: none;" class="djs-outline"/></g></g><g class="djs-group"><g class="djs-element djs-shape" data-element-id="SequenceFlow_1dcr8wv_label" transform="translate(300.5, 200)" style="display: none;"><g class="djs-visual"><text style="font-family: Arial,sans-serif; font-size: 11px;" class="djs-label"><tspan x="0" y="13"/></text></g><rect x="0" y="0" width="0" height="13" style="fill: none; stroke-opacity: 0; stroke: white; stroke-width: 15px;" class="djs-hit"/><rect x="-6" y="-6" width="12" height="25" style="fill: none;" class="djs-outline"/></g></g><g class="djs-group"><g class="djs-element djs-shape" data-element-id="SequenceFlow_1mc4qlf_label" transform="translate(564, 293)" style="display: none;"><g class="djs-visual"><text style="font-family: Arial,sans-serif; font-size: 11px;" class="djs-label"><tspan x="0" y="13"/></text></g><rect x="0" y="0" width="0" height="13" style="fill: none; stroke-opacity: 0; stroke: white; stroke-width: 15px;" class="djs-hit"/><rect x="-6" y="-6" width="12" height="25" style="fill: none;" class="djs-outline"/></g></g><g class="djs-group"><g class="djs-element djs-shape" data-element-id="SequenceFlow_0h1zozs_label" transform="translate(616, 341)" style="display: block;"><g class="djs-visual"><text style="font-family: Arial,sans-serif; font-size: 11px;" class="djs-label"><tspan x="0" y="13">aprovada</tspan></text></g><rect x="0" y="0" width="46" height="13" style="fill: none; stroke-opacity: 0; stroke: white; stroke-width: 15px;" class="djs-hit"/><rect x="-6" y="-6" width="58" height="25" style="fill: none;" class="djs-outline"/></g></g><g class="djs-group"><g class="djs-element djs-shape" data-element-id="SequenceFlow_0nkytbt_label" transform="translate(431, 341)" style="display: block;"><g class="djs-visual"><text style="font-family: Arial,sans-serif; font-size: 11px;" class="djs-label"><tspan x="0" y="13">reprovada</tspan></text></g><rect x="0" y="0" width="50" height="13" style="fill: none; stroke-opacity: 0; stroke: white; stroke-width: 15px;" class="djs-hit"/><rect x="-6" y="-6" width="62" height="25" style="fill: none;" class="djs-outline"/></g></g><g class="djs-group"><g class="djs-element djs-shape" data-element-id="SequenceFlow_0becipp_label" transform="translate(785.5, 200)" style="display: none;"><g class="djs-visual"><text style="font-family: Arial,sans-serif; font-size: 11px;" class="djs-label"><tspan x="0" y="13"/></text></g><rect x="0" y="0" width="0" height="13" style="fill: none; stroke-opacity: 0; stroke: white; stroke-width: 15px;" class="djs-hit"/><rect x="-6" y="-6" width="12" height="25" style="fill: none;" class="djs-outline"/></g></g><g class="djs-group"><g class="djs-element djs-shape" data-element-id="SequenceFlow_0qbogf4_label" transform="translate(883, 297.5)" style="display: none;"><g class="djs-visual"><text style="font-family: Arial,sans-serif; font-size: 11px;" class="djs-label"><tspan x="0" y="13"/></text></g><rect x="0" y="0" width="0" height="13" style="fill: none; stroke-opacity: 0; stroke: white; stroke-width: 15px;" class="djs-hit"/><rect x="-6" y="-6" width="12" height="25" style="fill: none;" class="djs-outline"/></g></g><g class="djs-group"><g class="djs-element djs-shape" data-element-id="SequenceFlow_063ll34_label" transform="translate(953.5, 365.5)" style="display: none;"><g class="djs-visual"><text style="font-family: Arial,sans-serif; font-size: 11px;" class="djs-label"><tspan x="0" y="13"/></text></g><rect x="0" y="0" width="0" height="13" style="fill: none; stroke-opacity: 0; stroke: white; stroke-width: 15px;" class="djs-hit"/><rect x="-6" y="-6" width="12" height="25" style="fill: none;" class="djs-outline"/></g></g><g class="djs-group"><g class="djs-element djs-shape" data-element-id="ExclusiveGateway_06zaiek_label" transform="translate(978, 415)" style="display: block;"><g class="djs-visual"><text style="font-family: Arial,sans-serif; font-size: 11px;" class="djs-label"><tspan x="0" y="13">aprova matéria</tspan><tspan x="36.5" y="26"/></text></g><rect x="0" y="0" width="73" height="26" style="fill: none; stroke-opacity: 0; stroke: white; stroke-width: 15px;" class="djs-hit"/><rect x="-6" y="-6" width="85" height="38" style="fill: none;" class="djs-outline"/></g></g><g class="djs-group"><g class="djs-element djs-shape selected" data-element-id="EndEvent_1kic2oz" transform="translate(1141, 369)" style="display: block;"><g class="djs-visual"><circle cx="18" cy="18" r="18" style="stroke: black; stroke-width: 4px; fill: white;"/></g><rect x="0" y="0" width="36" height="36" style="fill: none; stroke-opacity: 0; stroke: white; stroke-width: 15px;" class="djs-hit"/><rect x="-6" y="-6" width="48" height="48" style="fill: none;" class="djs-outline"/></g></g><g class="djs-group"><g class="djs-element djs-shape" data-element-id="IntermediateThrowEvent_029ydfc" transform="translate(617, 427)" style="display: block;"><g class="djs-visual"><circle cx="18" cy="18" r="18" style="stroke: black; stroke-width: 4px; fill: white;"/></g><rect x="0" y="0" width="36" height="36" style="fill: none; stroke-opacity: 0; stroke: white; stroke-width: 15px;" class="djs-hit"/><rect x="-6" y="-6" width="48" height="48" style="fill: none;" class="djs-outline"/></g></g><g class="djs-group"><g class="djs-element djs-connection" data-element-id="SequenceFlow_1dcr8wv" style="display: block;"><g class="djs-visual"><path d="m  264,222L337,222 " style="fill: none; stroke-width: 2px; stroke: black; stroke-linejoin: round; marker-end: url('#sequenceflow-end-white-black');"/></g><polyline points="264,222 337,222 " style="fill: none; stroke-opacity: 0; stroke: white; stroke-width: 15px;" class="djs-hit"/><rect x="258" y="216" width="85" height="12" style="fill: none;" class="djs-outline"/></g></g><g class="djs-group"><g class="djs-element djs-connection" data-element-id="SequenceFlow_0nkytbt" style="display: block;"><g class="djs-visual"><path d="m  524,362L387,362 L387,262 " style="fill: none; stroke-width: 2px; stroke: black; stroke-linejoin: round; marker-end: url('#sequenceflow-end-white-black');"/></g><polyline points="524,362 387,362 387,262 " style="fill: none; stroke-opacity: 0; stroke: white; stroke-width: 15px;" class="djs-hit"/><rect x="381" y="256" width="149" height="112" style="fill: none;" class="djs-outline"/></g></g><g class="djs-group"><g class="djs-element djs-connection" data-element-id="SequenceFlow_04k1tnd" style="display: block;"><g class="djs-visual"><path d="m  437,222L499,222 " style="fill: none; stroke-width: 2px; stroke: black; stroke-linejoin: round; marker-end: url('#sequenceflow-end-white-black');"/></g><polyline points="437,222 499,222 " style="fill: none; stroke-opacity: 0; stroke: white; stroke-width: 15px;" class="djs-hit"/><rect x="431" y="216" width="74" height="12" style="fill: none;" class="djs-outline"/></g></g><g class="djs-group"><g class="djs-element djs-connection" data-element-id="SequenceFlow_1mc4qlf" style="display: block;"><g class="djs-visual"><path d="m  549,262L549,337 " style="fill: none; stroke-width: 2px; stroke: black; stroke-linejoin: round; marker-end: url('#sequenceflow-end-white-black');"/></g><polyline points="549,262 549,337 " style="fill: none; stroke-opacity: 0; stroke: white; stroke-width: 15px;" class="djs-hit"/><rect x="543" y="256" width="12" height="87" style="fill: none;" class="djs-outline"/></g></g><g class="djs-group"><g class="djs-element djs-connection" data-element-id="SequenceFlow_0h1zozs" style="display: block;"><g class="djs-visual"><path d="m  574,362L703,362 L703,262 " style="fill: none; stroke-width: 2px; stroke: black; stroke-linejoin: round; marker-end: url('#sequenceflow-end-white-black');"/></g><polyline points="574,362 703,362 703,262 " style="fill: none; stroke-opacity: 0; stroke: white; stroke-width: 15px;" class="djs-hit"/><rect x="568" y="256" width="141" height="112" style="fill: none;" class="djs-outline"/></g></g><g class="djs-group"><g class="djs-element djs-connection" data-element-id="SequenceFlow_0becipp" style="display: block;"><g class="djs-visual"><path d="m  753,222L818,222 " style="fill: none; stroke-width: 2px; stroke: black; stroke-linejoin: round; marker-end: url('#sequenceflow-end-white-black');"/></g><polyline points="753,222 818,222 " style="fill: none; stroke-opacity: 0; stroke: white; stroke-width: 15px;" class="djs-hit"/><rect x="747" y="216" width="77" height="12" style="fill: none;" class="djs-outline"/></g></g><g class="djs-group"><g class="djs-element djs-connection" data-element-id="SequenceFlow_0grqfpk" style="display: block;"><g class="djs-visual"><path d="m  549,387L549,445 L617,445 " style="fill: none; stroke-width: 2px; stroke: black; stroke-linejoin: round; marker-end: url('#sequenceflow-end-white-black');"/></g><polyline points="549,387 549,445 617,445 " style="fill: none; stroke-opacity: 0; stroke: white; stroke-width: 15px;" class="djs-hit"/><rect x="543" y="381" width="80" height="70" style="fill: none;" class="djs-outline"/></g></g><g class="djs-group"><g class="djs-element djs-connection" data-element-id="SequenceFlow_0qbogf4" style="display: block;"><g class="djs-visual"><path d="m  868,262L868,347 " style="fill: none; stroke-width: 2px; stroke: black; stroke-linejoin: round; marker-end: url('#sequenceflow-end-white-black');"/></g><polyline points="868,262 868,347 " style="fill: none; stroke-opacity: 0; stroke: white; stroke-width: 15px;" class="djs-hit"/><rect x="862" y="256" width="12" height="97" style="fill: none;" class="djs-outline"/></g></g><g class="djs-group"><g class="djs-element djs-connection" data-element-id="SequenceFlow_063ll34" style="display: block;"><g class="djs-visual"><path d="m  918,387L989,387 " style="fill: none; stroke-width: 2px; stroke: black; stroke-linejoin: round; marker-end: url('#sequenceflow-end-white-black');"/></g><polyline points="918,387 989,387 " style="fill: none; stroke-opacity: 0; stroke: white; stroke-width: 15px;" class="djs-hit"/><rect x="912" y="381" width="83" height="12" style="fill: none;" class="djs-outline"/></g></g><g class="djs-group"><g class="djs-element djs-shape hover" data-element-id="EndEvent_1kic2oz_label" transform="translate(1120, 408)" style="display: block;"><g class="djs-visual"><text style="font-family: Arial,sans-serif; font-size: 11px;" class="djs-label"><tspan x="0" y="13">subir para o site</tspan><tspan x="39" y="26"/></text></g><rect x="0" y="0" width="78" height="26" style="fill: none; stroke-opacity: 0; stroke: white; stroke-width: 15px;" class="djs-hit"/><rect x="-6" y="-6" width="90" height="38" style="fill: none;" class="djs-outline"/></g></g><g class="djs-group"><g class="djs-element djs-connection" data-element-id="SequenceFlow_0d1f8s1" style="display: block;"><g class="djs-visual"><path d="m  1039,387L1141,387 " style="fill: none; stroke-width: 2px; stroke: black; stroke-linejoin: round; marker-end: url('#sequenceflow-end-white-black');"/></g><polyline points="1039,387 1141,387 " style="fill: none; stroke-opacity: 0; stroke: white; stroke-width: 15px;" class="djs-hit"/><rect x="1033" y="381" width="114" height="12" style="fill: none;" class="djs-outline"/></g></g><g class="djs-group"><g class="djs-element djs-shape" data-element-id="SequenceFlow_0d1f8s1_label" transform="translate(1067, 365)" style="display: block;"><g class="djs-visual"><text style="font-family: Arial,sans-serif; font-size: 11px;" class="djs-label"><tspan x="0" y="13">aprovada</tspan></text></g><rect x="0" y="0" width="46" height="13" style="fill: none; stroke-opacity: 0; stroke: white; stroke-width: 15px;" class="djs-hit"/><rect x="-6" y="-6" width="58" height="25" style="fill: none;" class="djs-outline"/></g></g><g class="djs-group"><g class="djs-element djs-connection" data-element-id="SequenceFlow_1iswtta" style="display: block;"><g class="djs-visual"><path d="m  1014,362L1014,222 L918,222 " style="fill: none; stroke-width: 2px; stroke: black; stroke-linejoin: round; marker-end: url('#sequenceflow-end-white-black');"/></g><polyline points="1014,362 1014,222 918,222 " style="fill: none; stroke-opacity: 0; stroke: white; stroke-width: 15px;" class="djs-hit"/><rect x="912" y="216" width="108" height="152" style="fill: none;" class="djs-outline"/></g></g><g class="djs-group"><g class="djs-element djs-shape" data-element-id="SequenceFlow_1iswtta_label" transform="translate(1014, 312)" style="display: block;"><g class="djs-visual"><text style="font-family: Arial,sans-serif; font-size: 11px;" class="djs-label"><tspan x="0" y="13">reprovada</tspan></text></g><rect x="0" y="0" width="50" height="13" style="fill: none; stroke-opacity: 0; stroke: white; stroke-width: 15px;" class="djs-hit"/><rect x="-6" y="-6" width="62" height="25" style="fill: none;" class="djs-outline"/></g></g><g class="djs-group"><g class="djs-element djs-shape" data-element-id="EndEvent_139vli1_label" transform="translate(635, 466)" style="display: none;"><g class="djs-visual"><text style="font-family: Arial,sans-serif; font-size: 11px;" class="djs-label"><tspan x="0" y="13"/></text></g><rect x="0" y="0" width="0" height="13" style="fill: none; stroke-opacity: 0; stroke: white; stroke-width: 15px;" class="djs-hit"/><rect x="-6" y="-6" width="12" height="25" style="fill: none;" class="djs-outline"/></g></g><g class="djs-group"><g class="djs-element djs-shape" data-element-id="SequenceFlow_0grqfpk_label" transform="translate(538, 420)" style="display: block;"><g class="djs-visual"><text style="font-family: Arial,sans-serif; font-size: 11px;" class="djs-label"><tspan x="0" y="13">pauta rejeitada</tspan><tspan x="35.5" y="26"/></text></g><rect x="0" y="0" width="71" height="26" style="fill: none; stroke-opacity: 0; stroke: white; stroke-width: 15px;" class="djs-hit"/><rect x="-6" y="-6" width="83" height="38" style="fill: none;" class="djs-outline"/></g></g></g></g><g style="pointer-events: none;" class="djs-drag-group" transform="translate(207, 21)"/><g style="pointer-events: none;" class="djs-drag-group" transform="translate(39, 15)"/><g style="pointer-events: none;" class="djs-drag-group" transform="translate(-7, 7)"/><g style="pointer-events: none;" class="djs-drag-group" transform="translate(-14, 133)"/><g style="pointer-events: none;" class="djs-drag-group" transform="translate(2, -126)"/><g style="pointer-events: none;" class="djs-drag-group" transform="translate(37, -8)"/><g style="pointer-events: none;" class="djs-drag-group" transform="translate(-35, 8)"/><g style="pointer-events: none;" class="djs-drag-group" transform="translate(0, 23)"/><g style="pointer-events: none;" class="djs-drag-group" transform="translate(-33)"/><g style="pointer-events: none;" class="djs-drag-group" transform="translate(112, 12)"/><g style="pointer-events: none;" class="djs-drag-group" transform="translate(0, 24)"/><g style="pointer-events: none;" class="djs-drag-group" transform="translate(86, -12)"/><g style="pointer-events: none;" class="djs-drag-group" transform="translate(-7, -12)"/><g style="pointer-events: none;" class="djs-drag-group" transform="translate(8, -2)"/><g style="pointer-events: none;" class="djs-drag-group" transform="translate(9, 10)"/><g style="pointer-events: none;" class="djs-drag-group" transform="translate(-134, 24)"/><g style="pointer-events: none;" class="djs-drag-group" transform="translate(6)"/><g style="pointer-events: none;" class="djs-drag-group" transform="translate(-40, 28)"/><g style="pointer-events: none;" class="djs-drag-group" transform="translate(10, -30)"/><g style="pointer-events: none;" class="djs-drag-group" transform="translate(0, 57)"/></svg>