<?xml version="1.0" encoding="utf-8"?>
<!-- created with bpmn-js / http://bpmn.io -->
<!DOCTYPE svg PUBLIC "-//W3C//DTD SVG 1.1//EN" "http://www.w3.org/Graphics/SVG/1.1/DTD/svg11.dtd">
<svg xmlns="http://www.w3.org/2000/svg" xmlns:xlink="http://www.w3.org/1999/xlink" width="950" height="459" viewBox="244 14 950 459" version="1.1"><defs><marker id="sequenceflow-end-white-black" viewBox="0 0 20 20" refX="11" refY="10" markerWidth="10" markerHeight="10" orient="auto"><path d="M 1 5 L 11 10 L 1 15 Z" style="fill: black; stroke-width: 1px; stroke-linecap: round; stroke-dasharray: 10000, 1; stroke: black;"></path></marker></defs><g class="djs-group"><g class="djs-element djs-shape" data-element-id="Participant_167qz2j" transform="translate(250, 20)" style="display: block;"><g class="djs-visual"><rect x="0" y="0" width="938" height="447" rx="0" ry="0" style="stroke: black; stroke-width: 2px; fill: white; fill-opacity: 0.95;"/><polyline points="30,0 30,447 " style="fill: none; stroke: black; stroke-width: 2px;"/><text style="font-family: Arial,sans-serif; font-size: 12px; fill: black;" class="djs-label" transform="matrix(-1.83697e-16, -1, 1, -1.83697e-16, 0, 447)"><tspan x="169" y="11.5">Producao da noticia</tspan><tspan x="223.5" y="25.5"/></text></g><rect x="0" y="0" width="938" height="447" style="fill: none; stroke-opacity: 0; stroke: white; stroke-width: 15px;" class="djs-hit"/><rect x="-6" y="-6" width="950" height="459" style="fill: none;" class="djs-outline"/></g><g class="djs-children"><g class="djs-group"><g class="djs-element djs-shape" data-element-id="Lane_17652ye" transform="translate(280, 20)" style="display: block;"><g class="djs-visual"><rect x="0" y="0" width="908" height="162" rx="0" ry="0" style="stroke: black; stroke-width: 2px; fill: white;"/><text style="font-family: Arial,sans-serif; font-size: 12px; fill: black;" class="djs-label" transform="matrix(-1.83697e-16, -1, 1, -1.83697e-16, 0, 162)"><tspan x="57" y="11.5">Reporter</tspan><tspan x="81" y="25.5"/></text></g><rect x="0" y="0" width="908" height="162" style="fill: none; stroke-opacity: 0; stroke: white; stroke-width: 15px;" class="djs-hit"/><rect x="-6" y="-6" width="920" height="174" style="fill: none;" class="djs-outline"/></g></g><g class="djs-group"><g class="djs-element djs-shape hover" data-element-id="Lane_1vanjxj" transform="translate(280, 182)" style="display: block;"><g class="djs-visual"><rect x="0" y="0" width="908" height="122" rx="0" ry="0" style="stroke: black; stroke-width: 2px; fill: white;"/><text style="font-family: Arial,sans-serif; font-size: 12px; fill: black;" class="djs-label" transform="matrix(-1.83697e-16, -1, 1, -1.83697e-16, 0, 122)"><tspan x="27" y="11.5">Editor Chefe</tspan><tspan x="61" y="25.5"/></text></g><rect x="0" y="0" width="908" height="122" style="fill: none; stroke-opacity: 0; stroke: white; stroke-width: 15px;" class="djs-hit"/><rect x="-6" y="-6" width="920" height="134" style="fill: none;" class="djs-outline"/></g></g><g class="djs-group"><g class="djs-element djs-shape" data-element-id="Lane_0yyoyvc" transform="translate(280, 304)" style="display: block;"><g class="djs-visual"><rect x="0" y="0" width="908" height="163" rx="0" ry="0" style="stroke: black; stroke-width: 2px; fill: white;"/><text style="font-family: Arial,sans-serif; font-size: 12px; fill: black;" class="djs-label" transform="matrix(-1.83697e-16, -1, 1, -1.83697e-16, 0, 163)"><tspan x="59.5" y="11.5">Redator</tspan><tspan x="81.5" y="25.5"/></text></g><rect x="0" y="0" width="908" height="163" style="fill: none; stroke-opacity: 0; stroke: white; stroke-width: 15px;" class="djs-hit"/><rect x="-6" y="-6" width="920" height="175" style="fill: none;" class="djs-outline"/></g></g><g class="djs-group"><g class="djs-element djs-shape" data-element-id="StartEvent_1" transform="translate(348, 344)" style="display: block;"><g class="djs-visual"><circle cx="18" cy="18" r="18" style="stroke: black; stroke-width: 2px; fill: white;"/></g><rect x="0" y="0" width="36" height="36" style="fill: none; stroke-opacity: 0; stroke: white; stroke-width: 15px;" class="djs-hit"/><rect x="-6" y="-6" width="48" height="48" style="fill: none;" class="djs-outline"/></g></g><g class="djs-group"><g class="djs-element djs-shape" data-element-id="StartEvent_1_label" transform="translate(330, 380)" style="display: block;"><g class="djs-visual"><text style="font-family: Arial,sans-serif; font-size: 11px;" class="djs-label"><tspan x="0" y="13">Envia Tema da </tspan><tspan x="20.5" y="26">noticia</tspan><tspan x="36" y="39"/></text></g><rect x="0" y="0" width="72" height="39" style="fill: none; stroke-opacity: 0; stroke: white; stroke-width: 15px;" class="djs-hit"/><rect x="-6" y="-6" width="84" height="51" style="fill: none;" class="djs-outline"/></g></g><g class="djs-group"><g class="djs-element djs-shape" data-element-id="Task_1t371cr" transform="translate(415, 82)" style="display: block;"><g class="djs-visual"><rect x="0" y="0" width="100" height="80" rx="10" ry="10" style="stroke: black; stroke-width: 2px; fill: white;"/><text style="font-family: Arial,sans-serif; font-size: 12px; fill: black;" class="djs-label"><tspan x="23" y="22.5">Entrevista </tspan><tspan x="22" y="36.5">contatos e </tspan><tspan x="11" y="50.5">recolhe dados</tspan><tspan x="50" y="64.5"/></text><path d="m 15,12 c 0.909,-0.845 1.594,-2.049 1.594,-3.385 0,-2.554 -1.805,-4.62199999 -4.357,-4.62199999 -2.55199998,0 -4.28799998,2.06799999 -4.28799998,4.62199999 0,1.348 0.974,2.562 1.89599998,3.405 -0.52899998,0.187 -5.669,2.097 -5.794,4.7560005 v 6.718 h 17 v -6.718 c 0,-2.2980005 -5.5279996,-4.5950005 -6.0509996,-4.7760005 zm -8,6 l 0,5.5 m 11,0 l 0,-5" style="fill: white; stroke-width: 0.5px; stroke: black;"/><path d="m 15,12 m 2.162,1.009 c 0,2.4470005 -2.158,4.4310005 -4.821,4.4310005 -2.66499998,0 -4.822,-1.981 -4.822,-4.4310005 " style="fill: white; stroke-width: 0.5px; stroke: black;"/><path d="m 15,12 m -6.9,-3.80 c 0,0 2.25099998,-2.358 4.27399998,-1.177 2.024,1.181 4.221,1.537 4.124,0.965 -0.098,-0.57 -0.117,-3.79099999 -4.191,-4.13599999 -3.57499998,0.001 -4.20799998,3.36699999 -4.20699998,4.34799999 z" style="fill: black; stroke-width: 0.5px; stroke: black;"/></g><rect x="0" y="0" width="100" height="80" style="fill: none; stroke-opacity: 0; stroke: white; stroke-width: 15px;" class="djs-hit"/><rect x="-6" y="-6" width="112" height="92" style="fill: none;" class="djs-outline"/></g></g><g class="djs-group"><g class="djs-element djs-shape" data-element-id="Task_0eekatq" transform="translate(560, 82)" style="display: block;"><g class="djs-visual"><rect x="0" y="0" width="100" height="80" rx="10" ry="10" style="stroke: black; stroke-width: 2px; fill: white;"/><text style="font-family: Arial,sans-serif; font-size: 12px; fill: black;" class="djs-label"><tspan x="16" y="36.5">Produz texto</tspan><tspan x="50" y="50.5"/></text><path d="m 15,12 c 0.909,-0.845 1.594,-2.049 1.594,-3.385 0,-2.554 -1.805,-4.62199999 -4.357,-4.62199999 -2.55199998,0 -4.28799998,2.06799999 -4.28799998,4.62199999 0,1.348 0.974,2.562 1.89599998,3.405 -0.52899998,0.187 -5.669,2.097 -5.794,4.7560005 v 6.718 h 17 v -6.718 c 0,-2.2980005 -5.5279996,-4.5950005 -6.0509996,-4.7760005 zm -8,6 l 0,5.5 m 11,0 l 0,-5" style="fill: white; stroke-width: 0.5px; stroke: black;"/><path d="m 15,12 m 2.162,1.009 c 0,2.4470005 -2.158,4.4310005 -4.821,4.4310005 -2.66499998,0 -4.822,-1.981 -4.822,-4.4310005 " style="fill: white; stroke-width: 0.5px; stroke: black;"/><path d="m 15,12 m -6.9,-3.80 c 0,0 2.25099998,-2.358 4.27399998,-1.177 2.024,1.181 4.221,1.537 4.124,0.965 -0.098,-0.57 -0.117,-3.79099999 -4.191,-4.13599999 -3.57499998,0.001 -4.20799998,3.36699999 -4.20699998,4.34799999 z" style="fill: black; stroke-width: 0.5px; stroke: black;"/></g><rect x="0" y="0" width="100" height="80" style="fill: none; stroke-opacity: 0; stroke: white; stroke-width: 15px;" class="djs-hit"/><rect x="-6" y="-6" width="112" height="92" style="fill: none;" class="djs-outline"/></g></g><g class="djs-group"><g class="djs-element djs-shape" data-element-id="Task_1pav3az" transform="translate(689, 199)" style="display: block;"><g class="djs-visual"><rect x="0" y="0" width="100" height="80" rx="10" ry="10" style="stroke: black; stroke-width: 2px; fill: white;"/><text style="font-family: Arial,sans-serif; font-size: 12px; fill: black;" class="djs-label"><tspan x="13.5" y="36.5">Avalia o texto</tspan><tspan x="50" y="50.5"/></text><path d="m 15,12 c 0.909,-0.845 1.594,-2.049 1.594,-3.385 0,-2.554 -1.805,-4.62199999 -4.357,-4.62199999 -2.55199998,0 -4.28799998,2.06799999 -4.28799998,4.62199999 0,1.348 0.974,2.562 1.89599998,3.405 -0.52899998,0.187 -5.669,2.097 -5.794,4.7560005 v 6.718 h 17 v -6.718 c 0,-2.2980005 -5.5279996,-4.5950005 -6.0509996,-4.7760005 zm -8,6 l 0,5.5 m 11,0 l 0,-5" style="fill: white; stroke-width: 0.5px; stroke: black;"/><path d="m 15,12 m 2.162,1.009 c 0,2.4470005 -2.158,4.4310005 -4.821,4.4310005 -2.66499998,0 -4.822,-1.981 -4.822,-4.4310005 " style="fill: white; stroke-width: 0.5px; stroke: black;"/><path d="m 15,12 m -6.9,-3.80 c 0,0 2.25099998,-2.358 4.27399998,-1.177 2.024,1.181 4.221,1.537 4.124,0.965 -0.098,-0.57 -0.117,-3.79099999 -4.191,-4.13599999 -3.57499998,0.001 -4.20799998,3.36699999 -4.20699998,4.34799999 z" style="fill: black; stroke-width: 0.5px; stroke: black;"/></g><rect x="0" y="0" width="100" height="80" style="fill: none; stroke-opacity: 0; stroke: white; stroke-width: 15px;" class="djs-hit"/><rect x="-6" y="-6" width="112" height="92" style="fill: none;" class="djs-outline"/></g></g><g class="djs-group"><g class="djs-element djs-shape" data-element-id="ExclusiveGateway_1whgwho" transform="translate(844, 214)" style="display: block;"><g class="djs-visual"><polygon points="25,0 50,25 25,50 0,25" style="stroke: black; stroke-width: 2px; fill: white;"/><path d="m 16,15 7.42857142857143,9.714285714285715 -7.42857142857143,9.714285714285715 3.428571428571429,0 5.714285714285715,-7.464228571428572 5.714285714285715,7.464228571428572 3.428571428571429,0 -7.42857142857143,-9.714285714285715 7.42857142857143,-9.714285714285715 -3.428571428571429,0 -5.714285714285715,7.464228571428572 -5.714285714285715,-7.464228571428572 -3.428571428571429,0 z" style="fill: black; stroke-width: 1px; stroke: black;"/></g><rect x="0" y="0" width="50" height="50" style="fill: none; stroke-opacity: 0; stroke: white; stroke-width: 15px;" class="djs-hit"/><rect x="-6" y="-6" width="62" height="62" style="fill: none;" class="djs-outline"/></g></g><g class="djs-group"><g class="djs-element djs-shape" data-element-id="Task_0nhul5u" transform="translate(933, 322)" style="display: block;"><g class="djs-visual"><rect x="0" y="0" width="100" height="80" rx="10" ry="10" style="stroke: black; stroke-width: 2px; fill: white;"/><text style="font-family: Arial,sans-serif; font-size: 12px; fill: black;" class="djs-label"><tspan x="19" y="29.5">Rescreve o </tspan><tspan x="7" y="43.5">texto para o site</tspan><tspan x="50" y="57.5"/></text><path d="m 15,12 c 0.909,-0.845 1.594,-2.049 1.594,-3.385 0,-2.554 -1.805,-4.62199999 -4.357,-4.62199999 -2.55199998,0 -4.28799998,2.06799999 -4.28799998,4.62199999 0,1.348 0.974,2.562 1.89599998,3.405 -0.52899998,0.187 -5.669,2.097 -5.794,4.7560005 v 6.718 h 17 v -6.718 c 0,-2.2980005 -5.5279996,-4.5950005 -6.0509996,-4.7760005 zm -8,6 l 0,5.5 m 11,0 l 0,-5" style="fill: white; stroke-width: 0.5px; stroke: black;"/><path d="m 15,12 m 2.162,1.009 c 0,2.4470005 -2.158,4.4310005 -4.821,4.4310005 -2.66499998,0 -4.822,-1.981 -4.822,-4.4310005 " style="fill: white; stroke-width: 0.5px; stroke: black;"/><path d="m 15,12 m -6.9,-3.80 c 0,0 2.25099998,-2.358 4.27399998,-1.177 2.024,1.181 4.221,1.537 4.124,0.965 -0.098,-0.57 -0.117,-3.79099999 -4.191,-4.13599999 -3.57499998,0.001 -4.20799998,3.36699999 -4.20699998,4.34799999 z" style="fill: black; stroke-width: 0.5px; stroke: black;"/></g><rect x="0" y="0" width="100" height="80" style="fill: none; stroke-opacity: 0; stroke: white; stroke-width: 15px;" class="djs-hit"/><rect x="-6" y="-6" width="112" height="92" style="fill: none;" class="djs-outline"/></g></g><g class="djs-group"><g class="djs-element djs-shape" data-element-id="EndEvent_1awx182" transform="translate(1093, 344)" style="display: block;"><g class="djs-visual"><circle cx="18" cy="18" r="18" style="stroke: black; stroke-width: 4px; fill: white;"/></g><rect x="0" y="0" width="36" height="36" style="fill: none; stroke-opacity: 0; stroke: white; stroke-width: 15px;" class="djs-hit"/><rect x="-6" y="-6" width="48" height="48" style="fill: none;" class="djs-outline"/></g></g><g class="djs-group"><g class="djs-element djs-connection" data-element-id="SequenceFlow_1ib54kp" style="display: block;"><g class="djs-visual"><path d="m  384,362L400,362 L400,122 L415,122 " style="fill: none; stroke-width: 2px; stroke: black; stroke-linejoin: round; marker-end: url('#sequenceflow-end-white-black');"/></g><polyline points="384,362 400,362 400,122 415,122 " style="fill: none; stroke-opacity: 0; stroke: white; stroke-width: 15px;" class="djs-hit"/><rect x="378" y="116" width="43" height="252" style="fill: none;" class="djs-outline"/></g></g><g class="djs-group"><g class="djs-element djs-shape" data-element-id="SequenceFlow_1ib54kp_label" transform="translate(415, 235.5)" style="display: none;"><g class="djs-visual"><text style="font-family: Arial,sans-serif; font-size: 11px;" class="djs-label"><tspan x="0" y="13"/></text></g><rect x="0" y="0" width="0" height="13" style="fill: none; stroke-opacity: 0; stroke: white; stroke-width: 15px;" class="djs-hit"/><rect x="-6" y="-6" width="12" height="25" style="fill: none;" class="djs-outline"/></g></g><g class="djs-group"><g class="djs-element djs-connection" data-element-id="SequenceFlow_1nqlprm" style="display: block;"><g class="djs-visual"><path d="m  515,122L560,122 " style="fill: none; stroke-width: 2px; stroke: black; stroke-linejoin: round; marker-end: url('#sequenceflow-end-white-black');"/></g><polyline points="515,122 560,122 " style="fill: none; stroke-opacity: 0; stroke: white; stroke-width: 15px;" class="djs-hit"/><rect x="509" y="116" width="57" height="12" style="fill: none;" class="djs-outline"/></g></g><g class="djs-group"><g class="djs-element djs-shape" data-element-id="SequenceFlow_1nqlprm_label" transform="translate(537.5, 100.5)" style="display: none;"><g class="djs-visual"><text style="font-family: Arial,sans-serif; font-size: 11px;" class="djs-label"><tspan x="0" y="13"/></text></g><rect x="0" y="0" width="0" height="13" style="fill: none; stroke-opacity: 0; stroke: white; stroke-width: 15px;" class="djs-hit"/><rect x="-6" y="-6" width="12" height="25" style="fill: none;" class="djs-outline"/></g></g><g class="djs-group"><g class="djs-element djs-connection" data-element-id="SequenceFlow_147vbof" style="display: block;"><g class="djs-visual"><path d="m  660,122L739,122 L739,199 " style="fill: none; stroke-width: 2px; stroke: black; stroke-linejoin: round; marker-end: url('#sequenceflow-end-white-black');"/></g><polyline points="660,122 739,122 739,199 " style="fill: none; stroke-opacity: 0; stroke: white; stroke-width: 15px;" class="djs-hit"/><rect x="654" y="116" width="91" height="89" style="fill: none;" class="djs-outline"/></g></g><g class="djs-group"><g class="djs-element djs-shape" data-element-id="SequenceFlow_147vbof_label" transform="translate(699.5, 100.5)" style="display: none;"><g class="djs-visual"><text style="font-family: Arial,sans-serif; font-size: 11px;" class="djs-label"><tspan x="0" y="13"/></text></g><rect x="0" y="0" width="0" height="13" style="fill: none; stroke-opacity: 0; stroke: white; stroke-width: 15px;" class="djs-hit"/><rect x="-6" y="-6" width="12" height="25" style="fill: none;" class="djs-outline"/></g></g><g class="djs-group"><g class="djs-element djs-shape" data-element-id="ExclusiveGateway_1whgwho_label" transform="translate(869, 267)" style="display: none;"><g class="djs-visual"><text style="font-family: Arial,sans-serif; font-size: 11px;" class="djs-label"><tspan x="0" y="13"/></text></g><rect x="0" y="0" width="0" height="13" style="fill: none; stroke-opacity: 0; stroke: white; stroke-width: 15px;" class="djs-hit"/><rect x="-6" y="-6" width="12" height="25" style="fill: none;" class="djs-outline"/></g></g><g class="djs-group"><g class="djs-element djs-connection" data-element-id="SequenceFlow_059zrnb" style="display: block;"><g class="djs-visual"><path d="m  789,239L844,239 " style="fill: none; stroke-width: 2px; stroke: black; stroke-linejoin: round; marker-end: url('#sequenceflow-end-white-black');"/></g><polyline points="789,239 844,239 " style="fill: none; stroke-opacity: 0; stroke: white; stroke-width: 15px;" class="djs-hit"/><rect x="783" y="233" width="67" height="12" style="fill: none;" class="djs-outline"/></g></g><g class="djs-group"><g class="djs-element djs-shape" data-element-id="SequenceFlow_059zrnb_label" transform="translate(816.5, 217)" style="display: none;"><g class="djs-visual"><text style="font-family: Arial,sans-serif; font-size: 11px;" class="djs-label"><tspan x="0" y="13"/></text></g><rect x="0" y="0" width="0" height="13" style="fill: none; stroke-opacity: 0; stroke: white; stroke-width: 15px;" class="djs-hit"/><rect x="-6" y="-6" width="12" height="25" style="fill: none;" class="djs-outline"/></g></g><g class="djs-group"><g class="djs-element djs-connection" data-element-id="SequenceFlow_1e78dg3" style="display: block;"><g class="djs-visual"><path d="m  869,214L869,61 L610,61 L610,82 " style="fill: none; stroke-width: 2px; stroke: black; stroke-linejoin: round; marker-end: url('#sequenceflow-end-white-black');"/></g><polyline points="869,214 869,61 610,61 610,82 " style="fill: none; stroke-opacity: 0; stroke: white; stroke-width: 15px;" class="djs-hit"/><rect x="604" y="55" width="271" height="165" style="fill: none;" class="djs-outline"/></g></g><g class="djs-group"><g class="djs-element djs-shape" data-element-id="SequenceFlow_1e78dg3_label" transform="translate(715, 40)" style="display: block;"><g class="djs-visual"><text style="font-family: Arial,sans-serif; font-size: 11px;" class="djs-label"><tspan x="0" y="13">reprovado</tspan></text></g><rect x="0" y="0" width="50" height="13" style="fill: none; stroke-opacity: 0; stroke: white; stroke-width: 15px;" class="djs-hit"/><rect x="-6" y="-6" width="62" height="25" style="fill: none;" class="djs-outline"/></g></g><g class="djs-group"><g class="djs-element djs-connection" data-element-id="SequenceFlow_08r373s" style="display: block;"><g class="djs-visual"><path d="m  869,239L869,362 L933,362 " style="fill: none; stroke-width: 2px; stroke: black; stroke-linejoin: round; marker-end: url('#sequenceflow-end-white-black');"/></g><polyline points="869,239 869,362 933,362 " style="fill: none; stroke-opacity: 0; stroke: white; stroke-width: 15px;" class="djs-hit"/><rect x="863" y="233" width="76" height="135" style="fill: none;" class="djs-outline"/></g></g><g class="djs-group"><g class="djs-element djs-shape" data-element-id="EndEvent_1awx182_label" transform="translate(1076, 383)" style="display: block;"><g class="djs-visual"><text style="font-family: Arial,sans-serif; font-size: 11px;" class="djs-label"><tspan x="0" y="13">Publica no site</tspan><tspan x="35" y="26"/></text></g><rect x="0" y="0" width="70" height="26" style="fill: none; stroke-opacity: 0; stroke: white; stroke-width: 15px;" class="djs-hit"/><rect x="-6" y="-6" width="82" height="38" style="fill: none;" class="djs-outline"/></g></g><g class="djs-group"><g class="djs-element djs-connection" data-element-id="SequenceFlow_1bot62s" style="display: block;"><g class="djs-visual"><path d="m  1033,362L1093,362 " style="fill: none; stroke-width: 2px; stroke: black; stroke-linejoin: round; marker-end: url('#sequenceflow-end-white-black');"/></g><polyline points="1033,362 1093,362 " style="fill: none; stroke-opacity: 0; stroke: white; stroke-width: 15px;" class="djs-hit"/><rect x="1027" y="356" width="72" height="12" style="fill: none;" class="djs-outline"/></g></g><g class="djs-group"><g class="djs-element djs-shape" data-element-id="SequenceFlow_1bot62s_label" transform="translate(1063, 340)" style="display: none;"><g class="djs-visual"><text style="font-family: Arial,sans-serif; font-size: 11px;" class="djs-label"><tspan x="0" y="13"/></text></g><rect x="0" y="0" width="0" height="13" style="fill: none; stroke-opacity: 0; stroke: white; stroke-width: 15px;" class="djs-hit"/><rect x="-6" y="-6" width="12" height="25" style="fill: none;" class="djs-outline"/></g></g><g class="djs-group"><g class="djs-element djs-shape selected" data-element-id="SequenceFlow_08r373s_label" transform="translate(873, 277)" style="display: block;"><g class="djs-visual"><text style="font-family: Arial,sans-serif; font-size: 11px;" class="djs-label"><tspan x="0" y="13">Aprovado</tspan></text></g><rect x="0" y="0" width="47" height="13" style="fill: none; stroke-opacity: 0; stroke: white; stroke-width: 15px;" class="djs-hit"/><rect x="-6" y="-6" width="59" height="25" style="fill: none;" class="djs-outline"/></g></g></g></g><g style="pointer-events: none;" class="djs-drag-group" transform="translate(142, 78)"/><g style="pointer-events: none;" class="djs-drag-group" transform="translate(-7, -5)"/><g style="pointer-events: none;" class="djs-drag-group" transform="translate(46, -17)"/><g style="pointer-events: none;" class="djs-drag-group" transform="translate(-10, -57)"/><g style="pointer-events: none;" class="djs-drag-group" transform="translate(-1, 2)"/><g style="pointer-events: none;" class="djs-drag-group" transform="translate(6, -2)"/><g style="pointer-events: none;" class="djs-drag-group" transform="translate(2, 1)"/><g style="pointer-events: none;" class="djs-drag-group" transform="translate(-3, 242)"/><g style="pointer-events: none;" class="djs-drag-group" transform="translate(0, -9)"/><g style="pointer-events: none;" class="djs-drag-group" transform="translate(0, -7)"/><g style="pointer-events: none;" class="djs-drag-group" transform="translate(12, -10)"/></svg>